<svg width="17" height="6" viewBox="0 0 17 6" fill="none" xmlns="http://www.w3.org/2000/svg">
<path d="M1 2.65C0.8067 2.65 0.65 2.8067 0.65 3C0.65 3.1933 0.8067 3.35 1 3.35V2.65ZM16.2475 3.24749C16.3842 3.1108 16.3842 2.8892 16.2475 2.75251L14.0201 0.525126C13.8834 0.388443 13.6618 0.388443 13.5251 0.525126C13.3884 0.66181 13.3884 0.883418 13.5251 1.0201L15.505 3L13.5251 4.9799C13.3884 5.11658 13.3884 5.33819 13.5251 5.47487C13.6618 5.61156 13.8834 5.61156 14.0201 5.47487L16.2475 3.24749ZM1 3.35H16V2.65H1V3.35Z" fill="#FF00C9"/>
</svg>
