<svg width="23" height="20" viewBox="0 0 23 20" fill="none" xmlns="http://www.w3.org/2000/svg">
<path fill-rule="evenodd" clip-rule="evenodd" d="M0.262133 8.78758L22.8159 0.071151C22.8962 0.0401287 22.9788 0.110651 22.9624 0.196191L19.1981 19.8362C19.1831 19.9141 19.0949 19.9514 19.0298 19.9074L12.6597 15.5992C12.6211 15.573 12.5704 15.5745 12.5332 15.6027L8.33316 18.7984C8.27414 18.8433 8.18912 18.8174 8.16431 18.7469L5.4928 11.1583C5.48224 11.1283 5.45949 11.1043 5.43033 11.0925L0.260447 8.99458C0.167831 8.95699 0.168917 8.82361 0.262133 8.78758ZM7.18001 10.5185C7.14353 10.5407 7.12518 10.5836 7.13432 10.6253L8.10257 15.0455C8.12615 15.1532 8.28106 15.1491 8.29893 15.0403L8.75619 12.257C8.75989 12.2345 8.77117 12.2139 8.78817 12.1987L17.2609 4.61444C17.3515 4.53331 17.2461 4.39126 17.1422 4.45451L7.18001 10.5185Z" fill="#FF00C9"/>
</svg>
