<svg width="26" height="26" viewBox="0 0 26 26" fill="none" xmlns="http://www.w3.org/2000/svg">
<path fill-rule="evenodd" clip-rule="evenodd" d="M22.212 3.77818C21.0101 2.57572 19.5822 1.62286 18.0106 0.974449C16.439 0.32604 14.7547 -0.00511086 13.0545 5.96255e-05C5.91963 5.96255e-05 0.111428 5.77924 0.108527 12.884C0.10537 15.1463 0.701706 17.369 1.83683 19.3259L0 26L6.86271 24.2084C8.76234 25.2375 10.8888 25.7762 13.0493 25.7754H13.0545C20.1889 25.7754 25.9965 19.9956 26 12.8915C26.0043 11.1972 25.6716 9.51893 25.0213 7.95438C24.371 6.38983 23.416 4.97023 22.212 3.77818ZM13.0545 23.6008H13.0499C11.1239 23.6014 9.23295 23.086 7.57365 22.1081L7.18075 21.876L3.10839 22.9392L4.1954 18.9876L3.93946 18.5813C2.86254 16.8763 2.29197 14.9006 2.29415 12.884C2.29415 6.98 7.12329 2.17639 13.0586 2.17639C15.9058 2.17131 18.6385 3.29737 20.6555 5.3069C22.6726 7.31644 23.8088 10.0449 23.8143 12.8921C23.812 18.7966 18.9852 23.6008 13.0545 23.6008ZM18.9562 15.5809C18.6329 15.4195 17.041 14.6407 16.7462 14.5333C16.4514 14.426 16.2337 14.372 16.0184 14.6947C15.8031 15.0173 15.1827 15.7393 14.9941 15.9569C14.8055 16.1746 14.6169 16.1984 14.2936 16.037C13.9703 15.8757 12.9274 15.5362 11.6919 14.4393C10.7302 13.5856 10.0814 12.5317 9.89275 12.2096C9.70414 11.8875 9.87244 11.7128 10.0344 11.5526C10.18 11.4081 10.3576 11.1766 10.5195 10.9885C10.6815 10.8005 10.7354 10.6658 10.8428 10.4511C10.9502 10.2364 10.8968 10.0483 10.8161 9.88758C10.7354 9.72682 10.0883 8.14187 9.81905 7.4971C9.55615 6.86915 9.28976 6.95446 9.09128 6.9446C8.90266 6.93531 8.68503 6.93299 8.47088 6.93299C8.30717 6.93725 8.14609 6.97522 7.99771 7.04452C7.84933 7.11381 7.71682 7.21296 7.60847 7.33576C7.31191 7.65843 6.47619 8.43843 6.47619 10.0216C6.47619 11.6049 7.63691 13.137 7.79709 13.3517C7.95726 13.5665 10.0779 16.8182 13.3227 18.2128C13.9252 18.4708 14.5408 18.6971 15.167 18.8906C15.9418 19.1356 16.6469 19.1013 17.2041 19.0183C17.8256 18.926 19.1193 18.2395 19.388 17.4873C19.6567 16.7352 19.6572 16.091 19.5766 15.9569C19.4959 15.8229 19.28 15.7416 18.9562 15.5809Z" fill="#FF00C9"/>
</svg>
